<svg width="130" height="80" viewBox="0 0 201 124" fill="none" xmlns="http://www.w3.org/2000/svg">
<path d="M200.9 11.8173C200.9 18.0025 195.309 23.0345 188.39 23.0345C181.47 23.0345 175.879 18.0025 175.879 11.8173C175.879 5.63204 181.47 0.6 188.39 0.6C195.309 0.6 200.9 5.63204 200.9 11.8173Z" fill="url(#paint0_linear_25_20)" stroke="black" stroke-width="0.2"/>
<path d="M1 92.9242H24.119V46.7121L51.4414 75.9484L53.5431 77.8346L55.6448 75.9484L82.9672 46.7121V92.9242H183.85L191.206 91.038L196.46 87.2656L199.613 81.607L200.664 75.9484V55.2001L197.511 49.5414L192.257 43.8828L187.003 39.1673L179.646 36.338H146.019H144.527L141.815 35.508L140.365 34.2631L139.714 32.5656V25.0207L140.365 23.0591L141.815 21.2483L144.527 19.9468L147.07 19.3621H151.273L166.069 19.9468V11.4589V2.38621H137.612L131.307 4.27242L125.002 7.10173L120.798 12.7604L118.697 19.3621V41.9966L121.849 47.6552L126.053 52.3708L130.256 55.2001L137.612 57.0863H173.341L175.443 58.0294L177.545 59.9156L178.596 61.8018V64.6311V67.4604L177.545 69.3466L175.443 71.2328L173.341 72.1759H106.086V36.338V0.5H97.6793L55.6448 41.9966L53.5431 43.8828L51.4414 41.9966L9.40689 0.5H1V92.9242Z" fill="url(#paint1_linear_25_20)" stroke="black" stroke-width="0.2"/>
<path d="M12.5999 113.559H9.02563V111.088H12.5999C13.1272 111.088 13.5504 111 13.8694 110.824C14.1949 110.648 14.4325 110.408 14.5823 110.102C14.7385 109.789 14.8167 109.438 14.8167 109.047C14.8167 108.643 14.7385 108.269 14.5823 107.924C14.4325 107.572 14.1949 107.289 13.8694 107.074C13.5504 106.859 13.1272 106.752 12.5999 106.752H10.178V118.5H6.99438V104.281H12.5999C13.7327 104.281 14.7027 104.486 15.51 104.896C16.3238 105.307 16.9456 105.87 17.3752 106.586C17.8114 107.296 18.0295 108.109 18.0295 109.027C18.0295 109.945 17.8114 110.743 17.3752 111.42C16.9456 112.097 16.3238 112.624 15.51 113.002C14.7027 113.373 13.7327 113.559 12.5999 113.559ZM22.8635 110.395V118.5H19.8167V107.934H22.678L22.8635 110.395ZM26.0178 107.855L25.969 110.697C25.8388 110.678 25.6695 110.661 25.4612 110.648C25.2528 110.629 25.0738 110.619 24.9241 110.619C24.5334 110.619 24.1949 110.668 23.9084 110.766C23.6285 110.857 23.3941 110.993 23.2053 111.176C23.023 111.358 22.8863 111.586 22.7952 111.859C22.704 112.126 22.6584 112.436 22.6584 112.787L22.0823 112.504C22.0823 111.807 22.1506 111.169 22.2874 110.59C22.4241 110.01 22.6226 109.509 22.8831 109.086C23.1435 108.656 23.4625 108.324 23.8401 108.09C24.2177 107.855 24.6474 107.738 25.1292 107.738C25.2854 107.738 25.4449 107.748 25.6077 107.768C25.7704 107.787 25.9071 107.816 26.0178 107.855ZM26.4963 113.324V113.119C26.4963 112.344 26.607 111.632 26.8284 110.98C27.0497 110.323 27.3752 109.753 27.8049 109.271C28.2346 108.79 28.762 108.415 29.387 108.148C30.012 107.875 30.7281 107.738 31.5354 107.738C32.3557 107.738 33.0784 107.875 33.7034 108.148C34.3349 108.415 34.8655 108.79 35.2952 109.271C35.7249 109.753 36.0504 110.323 36.2717 110.98C36.4931 111.632 36.6038 112.344 36.6038 113.119V113.324C36.6038 114.092 36.4931 114.805 36.2717 115.463C36.0504 116.114 35.7249 116.684 35.2952 117.172C34.8655 117.654 34.3381 118.028 33.7131 118.295C33.0881 118.562 32.3687 118.695 31.5549 118.695C30.7476 118.695 30.0282 118.562 29.3967 118.295C28.7652 118.028 28.2346 117.654 27.8049 117.172C27.3752 116.684 27.0497 116.114 26.8284 115.463C26.607 114.805 26.4963 114.092 26.4963 113.324ZM29.553 113.119V113.324C29.553 113.741 29.5855 114.132 29.6506 114.496C29.7222 114.861 29.8362 115.18 29.9924 115.453C30.1487 115.727 30.3538 115.941 30.6077 116.098C30.8681 116.247 31.1838 116.322 31.5549 116.322C31.926 116.322 32.2385 116.247 32.4924 116.098C32.7463 115.941 32.9514 115.727 33.1077 115.453C33.2639 115.18 33.3746 114.861 33.4397 114.496C33.5113 114.132 33.5471 113.741 33.5471 113.324V113.119C33.5471 112.709 33.5113 112.325 33.4397 111.967C33.3746 111.602 33.2639 111.28 33.1077 111C32.9514 110.72 32.7431 110.502 32.4827 110.346C32.2288 110.189 31.913 110.111 31.5354 110.111C31.1708 110.111 30.8616 110.189 30.6077 110.346C30.3538 110.502 30.1487 110.72 29.9924 111C29.8362 111.28 29.7222 111.602 29.6506 111.967C29.5855 112.325 29.553 112.709 29.553 113.119ZM44.3577 116.137V103.5H47.4241V118.5H44.6702L44.3577 116.137ZM37.7756 113.344V113.139C37.7756 112.338 37.8635 111.609 38.0393 110.951C38.2216 110.287 38.4853 109.717 38.8303 109.242C39.1819 108.76 39.6148 108.389 40.1292 108.129C40.6435 107.868 41.2327 107.738 41.8967 107.738C42.5087 107.738 43.0426 107.875 43.4983 108.148C43.954 108.415 44.3414 108.793 44.6604 109.281C44.9859 109.763 45.2496 110.333 45.4514 110.99C45.6532 111.641 45.8062 112.348 45.9104 113.109V113.461C45.8127 114.19 45.6597 114.87 45.4514 115.502C45.2496 116.133 44.9859 116.69 44.6604 117.172C44.3414 117.647 43.9508 118.021 43.4885 118.295C43.0328 118.562 42.4957 118.695 41.8772 118.695C41.2131 118.695 40.6239 118.562 40.1096 118.295C39.6018 118.028 39.1754 117.654 38.8303 117.172C38.4853 116.69 38.2216 116.124 38.0393 115.473C37.8635 114.822 37.7756 114.112 37.7756 113.344ZM40.8225 113.139V113.344C40.8225 113.76 40.8518 114.148 40.9104 114.506C40.9755 114.864 41.0797 115.18 41.2229 115.453C41.3661 115.727 41.5549 115.941 41.7893 116.098C42.0237 116.247 42.3101 116.322 42.6487 116.322C43.1044 116.322 43.4788 116.218 43.7717 116.01C44.0647 115.795 44.2861 115.499 44.4358 115.121C44.5855 114.743 44.6637 114.304 44.6702 113.803V112.777C44.6702 112.361 44.6278 111.986 44.5432 111.654C44.4586 111.322 44.3316 111.042 44.1624 110.814C43.9996 110.587 43.7945 110.414 43.5471 110.297C43.2997 110.173 43.0068 110.111 42.6682 110.111C42.3362 110.111 42.053 110.189 41.8186 110.346C41.5842 110.495 41.3922 110.707 41.2424 110.98C41.0992 111.254 40.9918 111.576 40.9202 111.947C40.8551 112.312 40.8225 112.709 40.8225 113.139ZM55.6565 115.951V107.934H58.7229V118.5H55.8518L55.6565 115.951ZM55.9788 113.793L56.8186 113.773C56.8186 114.483 56.734 115.137 56.5647 115.736C56.4019 116.335 56.1545 116.856 55.8225 117.299C55.497 117.742 55.0901 118.087 54.6018 118.334C54.12 118.575 53.5569 118.695 52.9124 118.695C52.3915 118.695 51.913 118.624 51.4768 118.48C51.0471 118.331 50.676 118.1 50.3635 117.787C50.051 117.468 49.8101 117.061 49.6409 116.566C49.4716 116.065 49.387 115.466 49.387 114.77V107.934H52.4338V114.789C52.4338 115.062 52.4664 115.297 52.5315 115.492C52.6031 115.681 52.6975 115.837 52.8147 115.961C52.9384 116.085 53.0881 116.176 53.2639 116.234C53.4462 116.293 53.6448 116.322 53.8596 116.322C54.4 116.322 54.8232 116.212 55.1292 115.99C55.4417 115.762 55.6597 115.46 55.7834 115.082C55.9137 114.698 55.9788 114.268 55.9788 113.793ZM65.1194 116.322C65.4449 116.322 65.7281 116.26 65.969 116.137C66.2099 116.013 66.3954 115.84 66.5256 115.619C66.6624 115.391 66.7307 115.118 66.7307 114.799H69.6018C69.6018 115.567 69.4032 116.244 69.0061 116.83C68.6155 117.416 68.0881 117.875 67.4241 118.207C66.76 118.533 66.0113 118.695 65.178 118.695C64.3577 118.695 63.6415 118.562 63.0295 118.295C62.4176 118.021 61.9065 117.641 61.4963 117.152C61.0862 116.664 60.7769 116.098 60.5686 115.453C60.3668 114.802 60.2659 114.099 60.2659 113.344V113.09C60.2659 112.341 60.3668 111.641 60.5686 110.99C60.7769 110.339 61.0862 109.77 61.4963 109.281C61.9065 108.793 62.4143 108.415 63.0198 108.148C63.6318 107.875 64.3479 107.738 65.1682 107.738C66.0341 107.738 66.7991 107.904 67.4631 108.236C68.1337 108.568 68.6578 109.047 69.0354 109.672C69.413 110.29 69.6018 111.036 69.6018 111.908H66.7307C66.7307 111.57 66.6689 111.267 66.5452 111C66.428 110.727 66.2457 110.512 65.9983 110.355C65.7574 110.193 65.4579 110.111 65.0999 110.111C64.7288 110.111 64.4228 110.193 64.1819 110.355C63.9475 110.512 63.7685 110.73 63.6448 111.01C63.5211 111.29 63.4364 111.609 63.3909 111.967C63.3453 112.318 63.3225 112.693 63.3225 113.09V113.344C63.3225 113.747 63.3453 114.132 63.3909 114.496C63.4364 114.854 63.5211 115.17 63.6448 115.443C63.775 115.717 63.9573 115.932 64.1917 116.088C64.426 116.244 64.7353 116.322 65.1194 116.322ZM64.0452 118.441H66.3596L66.2424 119.018C66.6135 119.083 66.9521 119.239 67.2581 119.486C67.564 119.74 67.717 120.147 67.717 120.707C67.717 121.065 67.6389 121.387 67.4827 121.674C67.3329 121.967 67.1083 122.217 66.8088 122.426C66.5159 122.634 66.148 122.794 65.7053 122.904C65.2691 123.015 64.7581 123.07 64.1721 123.07L64.1038 121.381C64.2991 121.381 64.4683 121.352 64.6116 121.293C64.7613 121.241 64.8785 121.156 64.9631 121.039C65.0543 120.928 65.0999 120.779 65.0999 120.59C65.0999 120.414 65.0543 120.277 64.9631 120.18C64.872 120.082 64.7255 120.007 64.5237 119.955C64.3219 119.903 64.0614 119.867 63.7424 119.848L64.0452 118.441ZM70.676 113.324V113.119C70.676 112.344 70.7867 111.632 71.0081 110.98C71.2294 110.323 71.5549 109.753 71.9846 109.271C72.4143 108.79 72.9417 108.415 73.5667 108.148C74.1917 107.875 74.9078 107.738 75.7151 107.738C76.5354 107.738 77.2581 107.875 77.8831 108.148C78.5146 108.415 79.0452 108.79 79.4749 109.271C79.9045 109.753 80.2301 110.323 80.4514 110.98C80.6728 111.632 80.7834 112.344 80.7834 113.119V113.324C80.7834 114.092 80.6728 114.805 80.4514 115.463C80.2301 116.114 79.9045 116.684 79.4749 117.172C79.0452 117.654 78.5178 118.028 77.8928 118.295C77.2678 118.562 76.5484 118.695 75.7346 118.695C74.9273 118.695 74.2079 118.562 73.5764 118.295C72.9449 118.028 72.4143 117.654 71.9846 117.172C71.5549 116.684 71.2294 116.114 71.0081 115.463C70.7867 114.805 70.676 114.092 70.676 113.324ZM73.7327 113.119V113.324C73.7327 113.741 73.7652 114.132 73.8303 114.496C73.9019 114.861 74.0159 115.18 74.1721 115.453C74.3284 115.727 74.5334 115.941 74.7874 116.098C75.0478 116.247 75.3635 116.322 75.7346 116.322C76.1057 116.322 76.4182 116.247 76.6721 116.098C76.926 115.941 77.1311 115.727 77.2874 115.453C77.4436 115.18 77.5543 114.861 77.6194 114.496C77.691 114.132 77.7268 113.741 77.7268 113.324V113.119C77.7268 112.709 77.691 112.325 77.6194 111.967C77.5543 111.602 77.4436 111.28 77.2874 111C77.1311 110.72 76.9228 110.502 76.6624 110.346C76.4084 110.189 76.0927 110.111 75.7151 110.111C75.3505 110.111 75.0413 110.189 74.7874 110.346C74.5334 110.502 74.3284 110.72 74.1721 111C74.0159 111.28 73.9019 111.602 73.8303 111.967C73.7652 112.325 73.7327 112.709 73.7327 113.119ZM77.7268 103.52L79.4456 103.627C79.4456 104.102 79.3479 104.538 79.1526 104.936C78.9638 105.333 78.7001 105.652 78.3616 105.893C78.0295 106.127 77.6487 106.244 77.219 106.244C76.913 106.244 76.6461 106.205 76.4182 106.127C76.1903 106.042 75.9788 105.945 75.7834 105.834C75.5881 105.717 75.3896 105.616 75.1877 105.531C74.9859 105.447 74.7581 105.404 74.5042 105.404C74.2958 105.404 74.1135 105.482 73.9573 105.639C73.8075 105.795 73.7327 106.023 73.7327 106.322L71.9944 106.225C71.9944 105.762 72.0888 105.333 72.2776 104.936C72.4664 104.532 72.7268 104.21 73.0588 103.969C73.3974 103.728 73.7847 103.607 74.2209 103.607C74.4814 103.607 74.7222 103.65 74.9436 103.734C75.1715 103.812 75.3896 103.907 75.5979 104.018C75.8127 104.128 76.0276 104.226 76.2424 104.311C76.4573 104.395 76.6851 104.438 76.926 104.438C77.1409 104.438 77.3264 104.359 77.4827 104.203C77.6454 104.047 77.7268 103.819 77.7268 103.52ZM87.3655 118.695C86.5256 118.695 85.7737 118.562 85.1096 118.295C84.4456 118.028 83.8824 117.66 83.4202 117.191C82.9644 116.716 82.6161 116.169 82.3752 115.551C82.1344 114.932 82.0139 114.271 82.0139 113.568V113.197C82.0139 112.41 82.1246 111.684 82.3459 111.02C82.5673 110.355 82.8896 109.779 83.3127 109.291C83.7424 108.796 84.2698 108.415 84.8948 108.148C85.5198 107.875 86.2327 107.738 87.0334 107.738C87.7821 107.738 88.4495 107.862 89.0354 108.109C89.6213 108.35 90.1161 108.699 90.5198 109.154C90.9234 109.604 91.2294 110.147 91.4377 110.785C91.6526 111.417 91.76 112.126 91.76 112.914V114.164H83.2444V112.201H88.7717V111.967C88.7717 111.596 88.7034 111.27 88.5667 110.99C88.4364 110.71 88.2411 110.495 87.9807 110.346C87.7268 110.189 87.4045 110.111 87.0139 110.111C86.6428 110.111 86.3336 110.189 86.0862 110.346C85.8388 110.502 85.6402 110.723 85.4905 111.01C85.3472 111.29 85.2431 111.618 85.178 111.996C85.1129 112.367 85.0803 112.768 85.0803 113.197V113.568C85.0803 113.979 85.1357 114.353 85.2463 114.691C85.357 115.03 85.5198 115.32 85.7346 115.561C85.9495 115.801 86.2099 115.99 86.5159 116.127C86.8219 116.264 87.1702 116.332 87.5608 116.332C88.0426 116.332 88.5015 116.241 88.9377 116.059C89.3739 115.87 89.7515 115.577 90.0706 115.18L91.4963 116.811C91.2815 117.123 90.9788 117.426 90.5881 117.719C90.204 118.005 89.7418 118.24 89.2014 118.422C88.6611 118.604 88.0491 118.695 87.3655 118.695ZM98.8694 115.561C98.8694 115.365 98.8075 115.193 98.6838 115.043C98.5667 114.893 98.3518 114.757 98.0393 114.633C97.7333 114.509 97.3004 114.385 96.7405 114.262C96.2131 114.151 95.7216 114.008 95.2659 113.832C94.8101 113.65 94.413 113.432 94.0745 113.178C93.7359 112.917 93.4722 112.611 93.2834 112.26C93.0946 111.902 93.0002 111.495 93.0002 111.039C93.0002 110.596 93.0946 110.176 93.2834 109.779C93.4788 109.382 93.7587 109.031 94.1233 108.725C94.4944 108.419 94.9436 108.178 95.4709 108.002C96.0048 107.826 96.6103 107.738 97.2874 107.738C98.2183 107.738 99.0224 107.885 99.6995 108.178C100.377 108.464 100.897 108.868 101.262 109.389C101.627 109.903 101.809 110.492 101.809 111.156H98.762C98.762 110.883 98.7099 110.645 98.6057 110.443C98.5015 110.242 98.342 110.085 98.1272 109.975C97.9124 109.857 97.6292 109.799 97.2776 109.799C97.0042 109.799 96.7633 109.848 96.5549 109.945C96.3531 110.036 96.1936 110.163 96.0764 110.326C95.9657 110.489 95.9104 110.678 95.9104 110.893C95.9104 111.042 95.943 111.179 96.0081 111.303C96.0797 111.42 96.1871 111.531 96.3303 111.635C96.4801 111.732 96.6721 111.82 96.9065 111.898C97.1474 111.977 97.4403 112.051 97.7854 112.123C98.5211 112.26 99.1917 112.452 99.7971 112.699C100.409 112.947 100.897 113.288 101.262 113.725C101.633 114.161 101.819 114.737 101.819 115.453C101.819 115.922 101.711 116.352 101.496 116.742C101.288 117.133 100.985 117.475 100.588 117.768C100.191 118.061 99.7157 118.288 99.1624 118.451C98.609 118.614 97.984 118.695 97.2874 118.695C96.2913 118.695 95.4482 118.516 94.7581 118.158C94.068 117.8 93.5471 117.351 93.1956 116.811C92.8505 116.264 92.678 115.704 92.678 115.131H95.5393C95.5523 115.482 95.6402 115.769 95.803 115.99C95.9722 116.212 96.1903 116.374 96.4573 116.479C96.7242 116.576 97.0237 116.625 97.3557 116.625C97.6877 116.625 97.9644 116.579 98.1858 116.488C98.4071 116.397 98.5764 116.273 98.6936 116.117C98.8108 115.954 98.8694 115.769 98.8694 115.561ZM113.479 118.695C112.639 118.695 111.887 118.562 111.223 118.295C110.559 118.028 109.996 117.66 109.533 117.191C109.078 116.716 108.729 116.169 108.489 115.551C108.248 114.932 108.127 114.271 108.127 113.568V113.197C108.127 112.41 108.238 111.684 108.459 111.02C108.681 110.355 109.003 109.779 109.426 109.291C109.856 108.796 110.383 108.415 111.008 108.148C111.633 107.875 112.346 107.738 113.147 107.738C113.895 107.738 114.563 107.862 115.149 108.109C115.735 108.35 116.229 108.699 116.633 109.154C117.037 109.604 117.343 110.147 117.551 110.785C117.766 111.417 117.873 112.126 117.873 112.914V114.164H109.358V112.201H114.885V111.967C114.885 111.596 114.817 111.27 114.68 110.99C114.55 110.71 114.354 110.495 114.094 110.346C113.84 110.189 113.518 110.111 113.127 110.111C112.756 110.111 112.447 110.189 112.199 110.346C111.952 110.502 111.753 110.723 111.604 111.01C111.461 111.29 111.356 111.618 111.291 111.996C111.226 112.367 111.194 112.768 111.194 113.197V113.568C111.194 113.979 111.249 114.353 111.36 114.691C111.47 115.03 111.633 115.32 111.848 115.561C112.063 115.801 112.323 115.99 112.629 116.127C112.935 116.264 113.283 116.332 113.674 116.332C114.156 116.332 114.615 116.241 115.051 116.059C115.487 115.87 115.865 115.577 116.184 115.18L117.61 116.811C117.395 117.123 117.092 117.426 116.701 117.719C116.317 118.005 115.855 118.24 115.315 118.422C114.774 118.604 114.162 118.695 113.479 118.695ZM134.162 116.039V118.5H126.594V116.039H134.162ZM127.678 104.281V118.5H124.494V104.281H127.678ZM133.186 110.004V112.387H126.594V110.004H133.186ZM134.172 104.281V106.752H126.594V104.281H134.172ZM139.016 116.342L141.223 107.934H144.426L140.92 118.5H138.996L139.016 116.342ZM137.59 107.934L139.787 116.352L139.807 118.5H137.883L134.377 107.934H137.59ZM150.393 118.695C149.553 118.695 148.801 118.562 148.137 118.295C147.473 118.028 146.91 117.66 146.448 117.191C145.992 116.716 145.643 116.169 145.403 115.551C145.162 114.932 145.041 114.271 145.041 113.568V113.197C145.041 112.41 145.152 111.684 145.373 111.02C145.595 110.355 145.917 109.779 146.34 109.291C146.77 108.796 147.297 108.415 147.922 108.148C148.547 107.875 149.26 107.738 150.061 107.738C150.809 107.738 151.477 107.862 152.063 108.109C152.649 108.35 153.143 108.699 153.547 109.154C153.951 109.604 154.257 110.147 154.465 110.785C154.68 111.417 154.787 112.126 154.787 112.914V114.164H146.272V112.201H151.799V111.967C151.799 111.596 151.731 111.27 151.594 110.99C151.464 110.71 151.268 110.495 151.008 110.346C150.754 110.189 150.432 110.111 150.041 110.111C149.67 110.111 149.361 110.189 149.114 110.346C148.866 110.502 148.668 110.723 148.518 111.01C148.375 111.29 148.27 111.618 148.205 111.996C148.14 112.367 148.108 112.768 148.108 113.197V113.568C148.108 113.979 148.163 114.353 148.274 114.691C148.384 115.03 148.547 115.32 148.762 115.561C148.977 115.801 149.237 115.99 149.543 116.127C149.849 116.264 150.198 116.332 150.588 116.332C151.07 116.332 151.529 116.241 151.965 116.059C152.401 115.87 152.779 115.577 153.098 115.18L154.524 116.811C154.309 117.123 154.006 117.426 153.615 117.719C153.231 118.005 152.769 118.24 152.229 118.422C151.688 118.604 151.076 118.695 150.393 118.695ZM159.26 110.189V118.5H156.203V107.934H159.074L159.26 110.189ZM158.86 112.846L158.098 112.865C158.098 112.071 158.196 111.358 158.391 110.727C158.586 110.095 158.863 109.558 159.221 109.115C159.586 108.666 160.018 108.324 160.52 108.09C161.028 107.855 161.587 107.738 162.199 107.738C162.694 107.738 163.147 107.81 163.557 107.953C163.967 108.096 164.319 108.327 164.612 108.646C164.911 108.959 165.139 109.376 165.295 109.896C165.451 110.411 165.53 111.046 165.53 111.801V118.5H162.463V111.791C162.463 111.348 162.401 111.007 162.278 110.766C162.154 110.525 161.972 110.355 161.731 110.258C161.496 110.16 161.21 110.111 160.871 110.111C160.513 110.111 160.207 110.183 159.953 110.326C159.699 110.463 159.491 110.655 159.328 110.902C159.166 111.15 159.045 111.439 158.967 111.771C158.895 112.104 158.86 112.462 158.86 112.846ZM172.893 107.934V110.072H166.623V107.934H172.893ZM168.059 105.316H171.115V115.189C171.115 115.482 171.151 115.707 171.223 115.863C171.295 116.02 171.412 116.13 171.574 116.195C171.737 116.254 171.946 116.283 172.199 116.283C172.382 116.283 172.538 116.277 172.668 116.264C172.798 116.251 172.919 116.234 173.03 116.215V118.422C172.769 118.507 172.492 118.572 172.199 118.617C171.906 118.669 171.587 118.695 171.242 118.695C170.585 118.695 170.015 118.588 169.533 118.373C169.058 118.158 168.694 117.82 168.44 117.357C168.186 116.889 168.059 116.28 168.059 115.531V105.316ZM173.645 113.324V113.119C173.645 112.344 173.755 111.632 173.977 110.98C174.198 110.323 174.524 109.753 174.953 109.271C175.383 108.79 175.91 108.415 176.535 108.148C177.16 107.875 177.877 107.738 178.684 107.738C179.504 107.738 180.227 107.875 180.852 108.148C181.483 108.415 182.014 108.79 182.444 109.271C182.873 109.753 183.199 110.323 183.42 110.98C183.642 111.632 183.752 112.344 183.752 113.119V113.324C183.752 114.092 183.642 114.805 183.42 115.463C183.199 116.114 182.873 116.684 182.444 117.172C182.014 117.654 181.487 118.028 180.862 118.295C180.237 118.562 179.517 118.695 178.703 118.695C177.896 118.695 177.177 118.562 176.545 118.295C175.914 118.028 175.383 117.654 174.953 117.172C174.524 116.684 174.198 116.114 173.977 115.463C173.755 114.805 173.645 114.092 173.645 113.324ZM176.701 113.119V113.324C176.701 113.741 176.734 114.132 176.799 114.496C176.871 114.861 176.985 115.18 177.141 115.453C177.297 115.727 177.502 115.941 177.756 116.098C178.017 116.247 178.332 116.322 178.703 116.322C179.074 116.322 179.387 116.247 179.641 116.098C179.895 115.941 180.1 115.727 180.256 115.453C180.412 115.18 180.523 114.861 180.588 114.496C180.66 114.132 180.696 113.741 180.696 113.324V113.119C180.696 112.709 180.66 112.325 180.588 111.967C180.523 111.602 180.412 111.28 180.256 111C180.1 110.72 179.892 110.502 179.631 110.346C179.377 110.189 179.061 110.111 178.684 110.111C178.319 110.111 178.01 110.189 177.756 110.346C177.502 110.502 177.297 110.72 177.141 111C176.985 111.28 176.871 111.602 176.799 111.967C176.734 112.325 176.701 112.709 176.701 113.119ZM190.979 115.561C190.979 115.365 190.917 115.193 190.793 115.043C190.676 114.893 190.461 114.757 190.149 114.633C189.843 114.509 189.41 114.385 188.85 114.262C188.323 114.151 187.831 114.008 187.375 113.832C186.92 113.65 186.522 113.432 186.184 113.178C185.845 112.917 185.582 112.611 185.393 112.26C185.204 111.902 185.11 111.495 185.11 111.039C185.11 110.596 185.204 110.176 185.393 109.779C185.588 109.382 185.868 109.031 186.233 108.725C186.604 108.419 187.053 108.178 187.58 108.002C188.114 107.826 188.72 107.738 189.397 107.738C190.328 107.738 191.132 107.885 191.809 108.178C192.486 108.464 193.007 108.868 193.371 109.389C193.736 109.903 193.918 110.492 193.918 111.156H190.871C190.871 110.883 190.819 110.645 190.715 110.443C190.611 110.242 190.451 110.085 190.237 109.975C190.022 109.857 189.739 109.799 189.387 109.799C189.114 109.799 188.873 109.848 188.664 109.945C188.462 110.036 188.303 110.163 188.186 110.326C188.075 110.489 188.02 110.678 188.02 110.893C188.02 111.042 188.052 111.179 188.117 111.303C188.189 111.42 188.296 111.531 188.44 111.635C188.589 111.732 188.781 111.82 189.016 111.898C189.257 111.977 189.55 112.051 189.895 112.123C190.63 112.26 191.301 112.452 191.906 112.699C192.518 112.947 193.007 113.288 193.371 113.725C193.742 114.161 193.928 114.737 193.928 115.453C193.928 115.922 193.821 116.352 193.606 116.742C193.397 117.133 193.095 117.475 192.698 117.768C192.3 118.061 191.825 118.288 191.272 118.451C190.718 118.614 190.093 118.695 189.397 118.695C188.401 118.695 187.558 118.516 186.867 118.158C186.177 117.8 185.656 117.351 185.305 116.811C184.96 116.264 184.787 115.704 184.787 115.131H187.649C187.662 115.482 187.75 115.769 187.912 115.99C188.082 116.212 188.3 116.374 188.567 116.479C188.834 116.576 189.133 116.625 189.465 116.625C189.797 116.625 190.074 116.579 190.295 116.488C190.517 116.397 190.686 116.273 190.803 116.117C190.92 115.954 190.979 115.769 190.979 115.561Z" fill="#390909"/>
<defs>
<linearGradient id="paint0_linear_25_20" x1="175.779" y1="11.8173" x2="201" y2="11.8173" gradientUnits="userSpaceOnUse">
<stop stop-color="#431D1D"/>
<stop offset="1" stop-color="#7F2D2A"/>
</linearGradient>
<linearGradient id="paint1_linear_25_20" x1="1" y1="55.2001" x2="200.662" y2="56.371" gradientUnits="userSpaceOnUse">
<stop stop-color="#411C1C"/>
<stop offset="1" stop-color="#91312D"/>
</linearGradient>
</defs>
</svg>
