<svg width="26" height="29" viewBox="0 0 26 29" fill="none" xmlns="http://www.w3.org/2000/svg">
<path d="M12.3681 19.2922L12.7077 19.6592L12.3681 19.2922C11.9844 19.6472 11.9477 20.2492 12.2695 20.6519C12.2696 20.652 12.2697 20.6521 12.2697 20.6521L13.6109 22.3314H2.24138C1.33156 22.3314 0.5 21.491 0.5 20.4176V4.48655C0.5 3.41308 1.33156 2.57275 2.24138 2.57275H23.7586C24.6684 2.57275 25.5 3.41308 25.5 4.48655V20.4176C25.5 21.491 24.6684 22.3314 23.7586 22.3314H22.8621H20.1724H19.2759H18.7759V22.8314V25.5258L15.9672 22.1983L13.7309 19.3983L13.7307 19.3981C13.3918 18.9743 12.7735 18.9171 12.3681 19.2922Z" fill="#2F0200" stroke="white"/>
<mask id="path-2-inside-1_29_27" fill="white">
<path d="M11.6553 9.31415H4.93119C4.68329 9.31415 4.48291 9.09787 4.48291 8.83139C4.48291 8.56491 4.68329 8.34863 4.93119 8.34863H11.6553C11.9032 8.34863 12.1036 8.56491 12.1036 8.83139C12.1036 9.09787 11.9032 9.31415 11.6553 9.31415Z"/>
</mask>
<path d="M11.6553 9.31415H4.93119C4.68329 9.31415 4.48291 9.09787 4.48291 8.83139C4.48291 8.56491 4.68329 8.34863 4.93119 8.34863H11.6553C11.9032 8.34863 12.1036 8.56491 12.1036 8.83139C12.1036 9.09787 11.9032 9.31415 11.6553 9.31415Z" fill="white"/>
<path d="M11.6553 8.31415H4.93119V10.3141H11.6553V8.31415ZM4.93119 8.31415C5.3047 8.31415 5.48291 8.61734 5.48291 8.83139H3.48291C3.48291 9.5784 4.06188 10.3141 4.93119 10.3141V8.31415ZM5.48291 8.83139C5.48291 9.04544 5.3047 9.34863 4.93119 9.34863V7.34863C4.06188 7.34863 3.48291 8.08438 3.48291 8.83139H5.48291ZM4.93119 9.34863H11.6553V7.34863H4.93119V9.34863ZM11.6553 9.34863C11.2818 9.34863 11.1036 9.04544 11.1036 8.83139H13.1036C13.1036 8.08438 12.5246 7.34863 11.6553 7.34863V9.34863ZM11.1036 8.83139C11.1036 8.61734 11.2818 8.31415 11.6553 8.31415V10.3141C12.5246 10.3141 13.1036 9.5784 13.1036 8.83139H11.1036Z" fill="white" mask="url(#path-2-inside-1_29_27)"/>
<mask id="path-4-inside-2_29_27" fill="white">
<path d="M20.1726 13.1762H4.93119C4.68329 13.1762 4.48291 12.9599 4.48291 12.6935C4.48291 12.427 4.68329 12.2107 4.93119 12.2107H20.1726C20.4205 12.2107 20.6208 12.427 20.6208 12.6935C20.6208 12.9599 20.4205 13.1762 20.1726 13.1762Z"/>
</mask>
<path d="M20.1726 13.1762H4.93119C4.68329 13.1762 4.48291 12.9599 4.48291 12.6935C4.48291 12.427 4.68329 12.2107 4.93119 12.2107H20.1726C20.4205 12.2107 20.6208 12.427 20.6208 12.6935C20.6208 12.9599 20.4205 13.1762 20.1726 13.1762Z" fill="white"/>
<path d="M20.1726 12.1762H4.93119V14.1762H20.1726V12.1762ZM4.93119 12.1762C5.3047 12.1762 5.48291 12.4794 5.48291 12.6935H3.48291C3.48291 13.4405 4.06188 14.1762 4.93119 14.1762V12.1762ZM5.48291 12.6935C5.48291 12.9075 5.3047 13.2107 4.93119 13.2107V11.2107C4.06188 11.2107 3.48291 11.9464 3.48291 12.6935H5.48291ZM4.93119 13.2107H20.1726V11.2107H4.93119V13.2107ZM20.1726 13.2107C19.7991 13.2107 19.6208 12.9075 19.6208 12.6935H21.6208C21.6208 11.9464 21.0419 11.2107 20.1726 11.2107V13.2107ZM19.6208 12.6935C19.6208 12.4794 19.7991 12.1762 20.1726 12.1762V14.1762C21.0419 14.1762 21.6208 13.4405 21.6208 12.6935H19.6208Z" fill="white" mask="url(#path-4-inside-2_29_27)"/>
<mask id="path-6-inside-3_29_27" fill="white">
<path d="M20.1726 17.0383H4.93119C4.68329 17.0383 4.48291 16.822 4.48291 16.5555C4.48291 16.289 4.68329 16.0728 4.93119 16.0728H20.1726C20.4205 16.0728 20.6208 16.289 20.6208 16.5555C20.6208 16.822 20.4205 17.0383 20.1726 17.0383Z"/>
</mask>
<path d="M20.1726 17.0383H4.93119C4.68329 17.0383 4.48291 16.822 4.48291 16.5555C4.48291 16.289 4.68329 16.0728 4.93119 16.0728H20.1726C20.4205 16.0728 20.6208 16.289 20.6208 16.5555C20.6208 16.822 20.4205 17.0383 20.1726 17.0383Z" fill="white"/>
<path d="M20.1726 16.0383H4.93119V18.0383H20.1726V16.0383ZM4.93119 16.0383C5.3047 16.0383 5.48291 16.3415 5.48291 16.5555H3.48291C3.48291 17.3025 4.06188 18.0383 4.93119 18.0383V16.0383ZM5.48291 16.5555C5.48291 16.7696 5.3047 17.0728 4.93119 17.0728V15.0728C4.06188 15.0728 3.48291 15.8085 3.48291 16.5555H5.48291ZM4.93119 17.0728H20.1726V15.0728H4.93119V17.0728ZM20.1726 17.0728C19.7991 17.0728 19.6208 16.7696 19.6208 16.5555H21.6208C21.6208 15.8085 21.0419 15.0728 20.1726 15.0728V17.0728ZM19.6208 16.5555C19.6208 16.3415 19.7991 16.0383 20.1726 16.0383V18.0383C21.0419 18.0383 21.6208 17.3025 21.6208 16.5555H19.6208Z" fill="white" mask="url(#path-6-inside-3_29_27)"/>
</svg>
