<svg width="26" height="26" viewBox="0 0 26 26" fill="none" xmlns="http://www.w3.org/2000/svg">
<path d="M14.0232 13.8605L14.0231 13.8605L10.4796 18.0735L10.4796 18.0735C10.0043 18.6385 9.1609 18.7113 8.59593 18.2361L14.0232 13.8605ZM14.0232 13.8605C14.2258 13.6196 14.3369 13.3148 14.3369 13V3.23756C14.3369 2.49923 13.7383 1.90066 13 1.90066C12.2617 1.90066 11.6631 2.49923 11.6631 3.23756V12.5125L8.43339 16.3524C8.43339 16.3524 8.43338 16.3524 8.43338 16.3524M14.0232 13.8605L8.43338 16.3524M8.43338 16.3524C7.95807 16.9175 8.03092 17.7608 8.59591 18.236L8.43338 16.3524ZM0.5 13C0.5 6.09046 6.0911 0.5 13 0.5C19.9095 0.5 25.5 6.09099 25.5 13C25.5 19.9095 19.909 25.5 13 25.5C6.09046 25.5 0.5 19.909 0.5 13Z" fill="#2F0200" stroke="#F8F8F8"/>
</svg>
