<svg width="40" height="40" viewBox="0 0 55 55" fill="none" xmlns="http://www.w3.org/2000/svg">
<path d="M54.5 27.6417C54.5 41.1849 44.6218 52.3823 31.7217 54.4211V35.4667H38.3396H38.7686L38.8338 35.0426L39.9498 27.7775L40.0383 27.2016H39.4556H31.7217V23.7304C31.7217 22.262 31.9626 20.9375 32.4977 19.998C33.0142 19.0915 33.8044 18.5339 35.0121 18.5339H39.5267H40.0267V18.0339V11.6924V11.2548L39.5929 11.1968C39.5711 11.1939 39.5486 11.1909 39.5255 11.1878C38.6941 11.0764 36.9995 10.8492 33.8869 10.8492C30.4929 10.8492 27.7168 11.7512 25.7946 13.7605C23.8763 15.7659 22.8888 18.7909 22.8888 22.8666V27.2016H16.5848H16.0848V27.7016V34.9667V35.4667H16.5848H22.8888V54.3548C10.1801 52.1521 0.5 41.0479 0.5 27.6417C0.5 12.6503 12.5917 0.5 27.5 0.5C42.4083 0.5 54.5 12.6503 54.5 27.6417Z" fill="white" stroke="white"/>
</svg>
