<svg width="40" height="40" viewBox="0 0 55 55" fill="none" xmlns="http://www.w3.org/2000/svg">
<path d="M16.0372 0C7.19365 0 0 7.20031 0 16.0461V38.9628C0 47.8064 7.20031 55 16.0461 55H38.9628C47.8064 55 55 47.7997 55 38.9539V16.0372C55 7.19365 47.7997 0 38.9539 0H16.0372ZM43.5417 9.16667C44.8067 9.16667 45.8333 10.1933 45.8333 11.4583C45.8333 12.7233 44.8067 13.75 43.5417 13.75C42.2767 13.75 41.25 12.7233 41.25 11.4583C41.25 10.1933 42.2767 9.16667 43.5417 9.16667ZM27.5 13.75C35.0831 13.75 41.25 19.9169 41.25 27.5C41.25 35.0831 35.0831 41.25 27.5 41.25C19.9169 41.25 13.75 35.0831 13.75 27.5C13.75 19.9169 19.9169 13.75 27.5 13.75ZM27.5 18.3333C25.0688 18.3333 22.7373 19.2991 21.0182 21.0182C19.2991 22.7373 18.3333 25.0688 18.3333 27.5C18.3333 29.9312 19.2991 32.2627 21.0182 33.9818C22.7373 35.7009 25.0688 36.6667 27.5 36.6667C29.9312 36.6667 32.2627 35.7009 33.9818 33.9818C35.7009 32.2627 36.6667 29.9312 36.6667 27.5C36.6667 25.0688 35.7009 22.7373 33.9818 21.0182C32.2627 19.2991 29.9312 18.3333 27.5 18.3333Z" fill="white"/>
</svg>
