<svg width="26" height="17" viewBox="0 0 26 17" fill="none" xmlns="http://www.w3.org/2000/svg">
<path d="M23.9979 0.410645H2.00211C0.899578 0.410645 0 1.17616 0 2.11438V15.2961C0 16.2344 0.899578 16.9999 2.00211 16.9999H23.9979C25.1004 16.9999 26 16.2344 26 15.2961V2.11438C26 1.17616 25.1004 0.410645 23.9979 0.410645ZM23.7072 1.67094L13.1371 9.36341L2.56709 1.67094H23.7072ZM24.519 15.2961C24.519 15.5389 24.2831 15.7396 23.9979 15.7396H2.00211C1.71688 15.7396 1.48101 15.5389 1.48101 15.2961V2.53914L12.6544 10.6704C12.6599 10.675 12.6709 10.6797 12.6764 10.6844C12.6819 10.689 12.6928 10.6937 12.6983 10.6984C12.7148 10.7077 12.7257 10.7171 12.7422 10.7217C12.7477 10.7264 12.7532 10.7264 12.7587 10.7311C12.7806 10.7404 12.8025 10.7497 12.8245 10.7591C12.83 10.7591 12.8354 10.7637 12.8409 10.7637C12.8574 10.7684 12.8738 10.7777 12.8958 10.7824C12.9013 10.7824 12.9122 10.7871 12.9177 10.7871C12.9342 10.7917 12.9506 10.7964 12.9671 10.7964C12.9726 10.7964 12.9835 10.8011 12.989 10.8011C13.0055 10.8057 13.0274 10.8057 13.0439 10.8104C13.0494 10.8104 13.0549 10.8104 13.0603 10.8104C13.0823 10.8104 13.1097 10.8151 13.1316 10.8151C13.1536 10.8151 13.181 10.8151 13.203 10.8104C13.2084 10.8104 13.2139 10.8104 13.2194 10.8104C13.2359 10.8104 13.2578 10.8057 13.2743 10.8011C13.2797 10.8011 13.2907 10.7964 13.2962 10.7964C13.3127 10.7917 13.3291 10.7871 13.3456 10.7871C13.3511 10.7871 13.362 10.7824 13.3675 10.7824C13.384 10.7777 13.4004 10.7731 13.4224 10.7637C13.4278 10.7637 13.4333 10.7591 13.4388 10.7591C13.4608 10.7497 13.4827 10.7404 13.5046 10.7311C13.5101 10.7264 13.5156 10.7264 13.5211 10.7217C13.5376 10.7124 13.5485 10.7077 13.565 10.6984C13.5705 10.6937 13.5814 10.689 13.5869 10.6844C13.5924 10.6797 13.6034 10.675 13.6089 10.6704L24.519 2.73986V15.2961Z" fill="white"/>
</svg>
