<svg width="26" height="32" viewBox="0 0 26 32" fill="none" xmlns="http://www.w3.org/2000/svg">
<path d="M12.6759 31.0276L12.6757 31.0273C12.4285 30.7403 9.36611 27.1656 6.36812 22.9322C4.86863 20.8148 3.39276 18.5431 2.29381 16.4421C1.18383 14.32 0.5 12.4479 0.5 11.1054C0.5 5.32924 6.03087 0.5 12.9994 0.5C19.9682 0.5 25.5 5.32929 25.5 11.1054C25.5 12.4479 24.8162 14.32 23.7062 16.4421C22.6073 18.5431 21.1315 20.8148 19.632 22.9322C16.634 27.1656 13.5716 30.7403 13.3244 31.0272L13.324 31.0277L13.0001 31.4045L12.6759 31.0276ZM18.1562 11.1054C18.1562 8.56445 15.7671 6.62748 12.9994 6.62748C10.2333 6.62748 7.84269 8.56436 7.84269 11.1054C7.84269 13.6453 10.2333 15.5834 12.9994 15.5834C15.7671 15.5834 18.1562 13.6452 18.1562 11.1054Z" fill="#2F0200" stroke="white"/>
</svg>
