<svg width="272" height="122" viewBox="0 0 272 122" fill="none" xmlns="http://www.w3.org/2000/svg">
<path d="M270.5 15.6939C270.5 23.4664 263.173 29.8878 253.976 29.8878C244.778 29.8878 237.452 23.4664 237.452 15.6939C237.452 7.92136 244.778 1.5 253.976 1.5C263.173 1.5 270.5 7.92136 270.5 15.6939Z" fill="url(#paint0_linear_28_2)" stroke="#2C2626"/>
<path d="M1 121H32.2106V61L69.0958 98.9592L71.9332 101.408L74.7705 98.9592L111.656 61V121H247.847L257.778 118.551L264.871 113.653L269.127 106.306L270.546 98.9592V72.0204L266.29 64.6735L259.197 57.3265L252.103 51.2041L242.173 47.5306H196.776H194.761L191.101 46.4531L189.143 44.8367L188.264 42.6327V32.8367L189.143 30.2898L191.101 27.9388L194.761 26.249L198.194 25.4898H203.869L223.844 26.249V15.2286V3.44898H185.426L176.914 5.89796L168.402 9.57143L162.728 16.9184L159.89 25.4898V54.8776L164.146 62.2245L169.821 68.3469L175.496 72.0204L185.426 74.4694H233.661L236.498 75.6939L239.335 78.1429L240.754 80.5918V84.2653V87.9388L239.335 90.3878L236.498 92.8367L233.661 94.0612H142.866V47.5306V1H131.517L74.7705 54.8776L71.9332 57.3265L69.0958 54.8776L12.3493 1H1V121Z" fill="white" stroke="#2C2626"/>
<defs>
<linearGradient id="paint0_linear_28_2" x1="236.952" y1="15.6939" x2="271" y2="15.6939" gradientUnits="userSpaceOnUse">
<stop stop-color="white"/>
<stop offset="1" stop-color="white"/>
</linearGradient>
</defs>
</svg>
