<svg width="800" height="677" viewBox="0 0 687 677" fill="none" xmlns="http://www.w3.org/2000/svg">
<rect width="520" height="677" fill="#A7342F"/>
<rect x="99" y="70" width="588" height="537" rx="8" fill="#2C2626"/>
<path d="M643.318 251.408C643.318 266.772 629.428 279.316 612.178 279.316C594.927 279.316 581.037 266.772 581.037 251.408C581.037 236.044 594.927 223.5 612.178 223.5C629.428 223.5 643.318 236.044 643.318 251.408Z" fill="url(#paint0_linear_88_2)" stroke="#2C2626"/>
<path d="M142 455H200.008V339L268.562 412.388L273.835 417.122L279.109 412.388L347.663 339V455H600.787L619.244 450.265L632.427 440.796L640.338 426.592L642.974 412.388V360.306L635.064 346.102L621.881 331.898L608.697 320.061L590.24 312.959H505.866H502.121L495.319 310.876L491.68 307.751L490.045 303.49V284.551L491.68 279.627L495.319 275.082L502.121 271.815L508.502 270.347H519.049L556.174 271.815V250.509V227.735H484.772L468.952 232.469L453.131 239.571L442.585 253.776L437.311 270.347V327.163L445.221 341.367L455.768 353.204L466.315 360.306L484.772 365.041H574.42L579.693 367.408L584.967 372.143L587.603 376.878V383.98V391.082L584.967 395.816L579.693 400.551L574.42 402.918H405.671V312.959V223H384.577L279.109 327.163L273.835 331.898L268.562 327.163L163.094 223H142V455Z" fill="white" stroke="#2C2626"/>
<defs>
<linearGradient id="paint0_linear_88_2" x1="580.537" y1="251.408" x2="643.818" y2="251.408" gradientUnits="userSpaceOnUse">
<stop stop-color="white"/>
<stop offset="1" stop-color="white"/>
</linearGradient>
</defs>
</svg>
