<svg width="30" height="25" viewBox="0 0 30 25" fill="none" xmlns="http://www.w3.org/2000/svg">
<g clip-path="url(#clip0_29_7)">
<path d="M20.7292 24.7905C20.5124 24.7905 20.294 24.7735 20.0764 24.7387C20.0705 24.738 20.0645 24.7373 20.0586 24.7364C19.7438 24.6922 12.2822 23.602 6.67197 19.0227C2.14941 15.3312 0.623886 10.5928 0.17395 8.69785C0.0900339 8.47244 0.0418265 8.23744 0.0308162 7.99867C0.0273941 7.97207 0.0265013 7.94548 0.028138 7.919C0.0201035 7.17464 0.368565 6.47741 1.01237 5.9519L2.91954 4.39518C3.03113 4.30409 3.18259 4.25284 3.34031 4.25284C3.49803 4.25284 3.64949 4.30409 3.76108 4.39518L9.93267 9.43285C10.1652 9.62256 10.1652 9.93019 9.93267 10.1198L8.0258 11.6765C7.97714 11.7162 7.92819 11.7539 7.8782 11.79C6.9874 12.4357 6.81466 13.5663 7.47736 14.4194C8.11403 15.2388 8.83431 15.9786 9.61798 16.6182C10.5463 17.3758 11.6477 18.0622 12.8915 18.6579C13.9087 19.1452 15.2166 18.989 16.0724 18.2782L16.0931 18.2612L18.0003 16.7046C18.2328 16.5147 18.6094 16.5147 18.8418 16.7046L25.0134 21.7421C25.2459 21.9318 25.2459 22.2395 25.0134 22.429L23.1064 23.9858C22.4678 24.5071 21.6131 24.7905 20.7292 24.7905ZM20.2315 23.7747C20.2478 23.7764 20.2642 23.7785 20.2804 23.7812C21.0031 23.9037 21.745 23.7232 22.2648 23.299L23.7509 22.0858L18.421 17.7353L16.9177 18.9624C15.6824 19.9884 13.7775 20.2091 12.2892 19.4963C10.9581 18.8587 9.77629 18.1216 8.77658 17.3055C7.93117 16.6154 7.15583 15.8197 6.47245 14.9399C5.50071 13.6889 5.76571 12.0223 7.08918 11.0629C7.1228 11.0389 7.15434 11.0144 7.18529 10.9891L8.67079 9.77655L3.34046 5.42567L1.85407 6.63881C1.4327 6.98288 1.20714 7.44147 1.21874 7.93066C1.21919 7.936 1.21948 7.94123 1.21963 7.94657C1.22558 8.11368 1.25921 8.27752 1.31962 8.43334C1.32646 8.45119 1.33212 8.46953 1.33643 8.48799C1.75765 10.2768 3.20283 14.817 7.51367 18.3359C12.6888 22.5601 19.722 23.6971 20.2315 23.7747ZM29.3772 13.7769C29.0485 13.7769 28.782 13.5594 28.782 13.2911C28.782 6.66529 22.1779 1.27456 14.0603 1.27456C13.7317 1.27456 13.4652 1.05705 13.4652 0.788772C13.4652 0.520492 13.7317 0.302979 14.0603 0.302979C22.8344 0.302979 29.9723 6.12946 29.9723 13.2911C29.9723 13.5594 29.7059 13.7769 29.3772 13.7769ZM25.6843 13.7769C25.3556 13.7769 25.0891 13.5594 25.0891 13.2911C25.0891 8.28432 20.0989 4.21106 13.9651 4.21106C13.6364 4.21106 13.37 3.99355 13.37 3.72527C13.37 3.45699 13.6364 3.23948 13.9651 3.23948C20.7552 3.23948 26.2794 7.74861 26.2794 13.2911C26.2794 13.5594 26.0129 13.7769 25.6843 13.7769ZM22.0006 13.7769C21.6719 13.7769 21.4054 13.5594 21.4054 13.2911C21.4054 9.94245 18.0677 7.218 13.9651 7.218C13.6364 7.218 13.37 7.00049 13.37 6.73221C13.37 6.46393 13.6364 6.24642 13.9651 6.24642C18.724 6.24642 22.5957 9.40662 22.5957 13.2911C22.5957 13.5594 22.3292 13.7769 22.0006 13.7769Z" fill="white"/>
</g>
<defs>
<clipPath id="clip0_29_7">
<rect width="30" height="24.4875" fill="white" transform="translate(0 0.302979)"/>
</clipPath>
</defs>
</svg>
