<svg width="40" height="40" viewBox="0 0 40 40" fill="none" xmlns="http://www.w3.org/2000/svg">
<path d="M20 0C8.95454 0 0 8.95424 0 19.9996C0 31.0462 8.95454 40 20 40C31.046 40 40 31.0462 40 19.9996C40 8.95495 31.0467 0 20 0ZM29.1719 28.8452C28.8127 29.4344 28.0451 29.619 27.4578 29.2601C22.7613 26.3896 16.8499 25.7412 9.88809 27.3316C9.21724 27.4854 8.54852 27.0648 8.39569 26.3942C8.24212 25.7233 8.66077 25.0546 9.33331 24.9018C16.9519 23.16 23.4869 23.9097 28.7585 27.1309C29.346 27.4916 29.5325 28.2577 29.1719 28.8452ZM31.6198 23.4003C31.1675 24.1342 30.2079 24.3644 29.4749 23.9137C24.1002 20.6098 15.9044 19.6529 9.54563 21.5831C8.72096 21.8321 7.84996 21.3674 7.59967 20.5442C7.35129 19.7195 7.8163 18.8502 8.63952 18.5994C15.9029 16.3955 24.9325 17.4631 31.1061 21.2568C31.8393 21.7082 32.0712 22.668 31.6198 23.4003ZM31.83 17.7296C25.3831 13.901 14.7492 13.549 8.59484 15.4168C7.60659 15.7166 6.56149 15.1587 6.262 14.1704C5.96251 13.1817 6.51993 12.1373 7.50891 11.8368C14.5736 9.69221 26.3179 10.1066 33.7392 14.5122C34.6281 15.0397 34.9197 16.1877 34.3928 17.0755C33.8674 17.9644 32.716 18.2574 31.83 17.7296Z" fill="#2EBD59"/>
</svg>
