<svg width="84" height="84" viewBox="0 0 84 84" fill="none" xmlns="http://www.w3.org/2000/svg">
<path d="M81.7071 21.5513L81.7072 21.5517L81.7072 21.5519L81.7087 21.5588C82.0684 23.2705 82.2504 25.0288 82.2504 26.7739C82.2504 40.5273 71.3956 51.3026 57.4741 51.3026C55.6297 51.3026 53.9134 51.2995 52.1697 51.0312L51.3028 50.8978L50.6771 51.5125L23.1384 78.5694L23.1292 78.5783L23.1202 78.5875C20.8038 80.931 17.6545 82.25 14.2848 82.25C10.9158 82.25 7.76886 80.9345 5.39983 78.5467C0.537938 73.6209 0.535343 65.6043 5.38815 60.6752L32.8504 33.7035L33.5506 33.0158L33.329 32.0597C32.9055 30.2328 32.6978 28.4866 32.6978 26.7739C32.6978 12.963 43.8268 1.75 57.4741 1.75C59.143 1.75 60.8148 1.91948 62.4297 2.25316L62.4394 2.25527L62.4981 2.26803C62.551 2.27963 62.6307 2.29737 62.7333 2.32098C62.9388 2.36822 63.2351 2.43871 63.5918 2.53018C64.3092 2.71415 65.2522 2.9783 66.1838 3.30349C67.1354 3.63567 67.9848 4.00088 68.5649 4.36463C68.658 4.42301 68.7363 4.47654 68.8016 4.52454C68.6538 4.74229 68.4462 5.0145 68.1738 5.33996C67.4746 6.17517 66.4772 7.20934 65.3284 8.32623C63.0396 10.5515 60.278 12.9817 58.4191 14.5852C56.6935 16.0707 55.7241 18.2148 55.7241 20.4783C55.7241 24.7871 59.2133 28.2763 63.5221 28.2763C65.7856 28.2763 67.9297 27.3069 69.4153 25.5814C71.0187 23.7224 73.4489 20.9608 75.6742 18.672C76.7911 17.5232 77.8252 16.5258 78.6605 15.8267C78.9849 15.5551 79.2564 15.3479 79.4738 15.2002C79.52 15.2637 79.5713 15.3394 79.6272 15.4289C79.987 16.0062 80.3475 16.8524 80.6749 17.8016C80.9952 18.7305 81.2545 19.671 81.4349 20.3866C81.5245 20.7424 81.5935 21.038 81.6397 21.2429C81.6628 21.3452 81.6801 21.4247 81.6914 21.4774L81.7039 21.5359L81.7067 21.5492L81.7071 21.5513Z" fill="white" stroke="black" stroke-width="3.5"/>
</svg>
