<svg width="114" height="118" viewBox="0 0 114 118" fill="none" xmlns="http://www.w3.org/2000/svg">
<ellipse cx="107.667" cy="111.444" rx="6.33333" ry="6.55556" transform="rotate(-180 107.667 111.444)" fill="#8C8B8B"/>
<ellipse cx="82.3332" cy="111.444" rx="6.33333" ry="6.55556" transform="rotate(-180 82.3332 111.444)" fill="#8C8B8B"/>
<ellipse cx="57.0002" cy="111.444" rx="6.33333" ry="6.55556" transform="rotate(-180 57.0002 111.444)" fill="#8C8B8B"/>
<ellipse cx="31.6667" cy="111.444" rx="6.33333" ry="6.55556" transform="rotate(-180 31.6667 111.444)" fill="#8C8B8B"/>
<ellipse cx="6.33317" cy="111.444" rx="6.33333" ry="6.55556" transform="rotate(-180 6.33317 111.444)" fill="#8C8B8B"/>
<ellipse cx="107.667" cy="85.2223" rx="6.33333" ry="6.55556" transform="rotate(-180 107.667 85.2223)" fill="#8C8B8B"/>
<ellipse cx="82.3332" cy="85.2223" rx="6.33333" ry="6.55556" transform="rotate(-180 82.3332 85.2223)" fill="#8C8B8B"/>
<ellipse cx="57.0002" cy="85.2223" rx="6.33333" ry="6.55556" transform="rotate(-180 57.0002 85.2223)" fill="#8C8B8B"/>
<ellipse cx="31.6667" cy="85.2223" rx="6.33333" ry="6.55556" transform="rotate(-180 31.6667 85.2223)" fill="#8C8B8B"/>
<ellipse cx="6.33317" cy="85.2223" rx="6.33333" ry="6.55556" transform="rotate(-180 6.33317 85.2223)" fill="#8C8B8B"/>
<ellipse cx="82.3332" cy="59" rx="6.33333" ry="6.55556" transform="rotate(-180 82.3332 59)" fill="#8C8B8B"/>
<ellipse cx="56.9997" cy="59" rx="6.33333" ry="6.55556" transform="rotate(-180 56.9997 59)" fill="#8C8B8B"/>
<ellipse cx="31.6667" cy="59" rx="6.33333" ry="6.55556" transform="rotate(-180 31.6667 59)" fill="#8C8B8B"/>
<ellipse cx="6.33317" cy="59" rx="6.33333" ry="6.55556" transform="rotate(-180 6.33317 59)" fill="#8C8B8B"/>
<ellipse cx="84.4445" cy="32.7778" rx="6.33333" ry="6.55556" transform="rotate(-180 84.4445 32.7778)" fill="#8C8B8B"/>
<ellipse cx="59.111" cy="32.7778" rx="6.33333" ry="6.55556" transform="rotate(-180 59.111 32.7778)" fill="#8C8B8B"/>
<ellipse cx="33.778" cy="32.7778" rx="6.33333" ry="6.55556" transform="rotate(-180 33.778 32.7778)" fill="#8C8B8B"/>
<ellipse cx="8.4445" cy="32.7778" rx="6.33333" ry="6.55556" transform="rotate(-180 8.4445 32.7778)" fill="#8C8B8B"/>
<ellipse cx="33.778" cy="6.55553" rx="6.33333" ry="6.55556" transform="rotate(-180 33.778 6.55553)" fill="#8C8B8B"/>
<ellipse cx="8.4445" cy="6.55553" rx="6.33333" ry="6.55556" transform="rotate(-180 8.4445 6.55553)" fill="#8C8B8B"/>
</svg>
